<svg width="523" height="176" viewBox="0 0 523 176" fill="none" xmlns="http://www.w3.org/2000/svg">
<path d="M451.542 134.382C448.266 137.307 443.081 134.889 443.215 130.499L443.505 121.022C443.615 117.432 447.361 115.126 450.616 116.643L457.4 119.807C460.655 121.325 461.296 125.677 458.616 128.069L451.542 134.382Z" fill="#40A1D8"/>
<path d="M490.48 17.1941C492.731 12.3678 498.468 10.2797 503.294 12.5303C508.12 14.7808 510.208 20.5177 507.958 25.344L465.094 117.267L447.616 109.117L490.48 17.1941Z" fill="#40A1D8"/>
<path d="M44.46 66.15C50.5267 66.15 55.9433 67.71 60.71 70.83C65.5633 73.8633 69.3767 78.0667 72.15 83.44C75.01 88.8133 76.44 95.0533 76.44 102.16C76.44 109.267 75.01 115.55 72.15 121.01C69.3767 126.383 65.6067 130.63 60.84 133.75C56.16 136.783 50.8733 138.3 44.98 138.3C41.5133 138.3 38.2633 137.737 35.23 136.61C32.1967 135.483 29.51 134.053 27.17 132.32C24.9167 130.587 23.14 128.853 21.84 127.12C20.6267 125.3 20.02 123.783 20.02 122.57L24.05 120.88V155.07C24.05 157.323 23.3133 159.187 21.84 160.66C20.3667 162.22 18.5033 163 16.25 163C13.9967 163 12.1333 162.263 10.66 160.79C9.18667 159.317 8.45 157.41 8.45 155.07V75.38C8.45 73.1267 9.18667 71.2633 10.66 69.79C12.1333 68.23 13.9967 67.45 16.25 67.45C18.5033 67.45 20.3667 68.23 21.84 69.79C23.3133 71.2633 24.05 73.1267 24.05 75.38V81.75L21.84 80.58C21.84 79.4533 22.4467 78.11 23.66 76.55C24.8733 74.9033 26.52 73.3 28.6 71.74C30.68 70.0933 33.0633 68.75 35.75 67.71C38.5233 66.67 41.4267 66.15 44.46 66.15ZM42.51 80.45C38.6967 80.45 35.36 81.4033 32.5 83.31C29.64 85.2167 27.3867 87.8167 25.74 91.11C24.18 94.3167 23.4 98 23.4 102.16C23.4 106.233 24.18 109.96 25.74 113.34C27.3867 116.633 29.64 119.233 32.5 121.14C35.36 123.047 38.6967 124 42.51 124C46.3233 124 49.6167 123.047 52.39 121.14C55.25 119.233 57.46 116.633 59.02 113.34C60.6667 109.96 61.49 106.233 61.49 102.16C61.49 98 60.6667 94.3167 59.02 91.11C57.46 87.8167 55.25 85.2167 52.39 83.31C49.6167 81.4033 46.3233 80.45 42.51 80.45ZM122.841 138.3C115.474 138.3 109.061 136.783 103.601 133.75C98.2275 130.63 94.0675 126.427 91.1209 121.14C88.2609 115.853 86.8309 109.873 86.8309 103.2C86.8309 95.4 88.3909 88.77 91.5109 83.31C94.7175 77.7633 98.8775 73.5167 103.991 70.57C109.104 67.6233 114.521 66.15 120.241 66.15C124.661 66.15 128.821 67.06 132.721 68.88C136.708 70.7 140.218 73.2133 143.251 76.42C146.284 79.54 148.668 83.18 150.401 87.34C152.221 91.5 153.131 95.92 153.131 100.6C153.044 102.68 152.221 104.37 150.661 105.67C149.101 106.97 147.281 107.62 145.201 107.62H95.5409L91.6409 94.62H139.351L136.491 97.22V93.71C136.318 91.1967 135.408 88.9433 133.761 86.95C132.201 84.9567 130.208 83.3967 127.781 82.27C125.441 81.0567 122.928 80.45 120.241 80.45C117.641 80.45 115.214 80.7967 112.961 81.49C110.708 82.1833 108.758 83.3533 107.111 85C105.464 86.6467 104.164 88.8567 103.211 91.63C102.258 94.4033 101.781 97.9133 101.781 102.16C101.781 106.84 102.734 110.827 104.641 114.12C106.634 117.327 109.148 119.797 112.181 121.53C115.301 123.177 118.594 124 122.061 124C125.268 124 127.824 123.74 129.731 123.22C131.638 122.7 133.154 122.093 134.281 121.4C135.494 120.62 136.578 119.97 137.531 119.45C139.091 118.67 140.564 118.28 141.951 118.28C143.858 118.28 145.418 118.93 146.631 120.23C147.931 121.53 148.581 123.047 148.581 124.78C148.581 127.12 147.368 129.243 144.941 131.15C142.688 133.057 139.524 134.747 135.451 136.22C131.378 137.607 127.174 138.3 122.841 138.3ZM203.941 66.15C210.354 66.15 215.207 67.4933 218.501 70.18C221.881 72.8667 224.177 76.4633 225.391 80.97C226.691 85.39 227.341 90.33 227.341 95.79V129.07C227.341 131.323 226.604 133.23 225.131 134.79C223.657 136.263 221.794 137 219.541 137C217.287 137 215.424 136.263 213.951 134.79C212.477 133.23 211.741 131.323 211.741 129.07V95.79C211.741 92.93 211.351 90.3733 210.571 88.12C209.877 85.78 208.577 83.9167 206.671 82.53C204.764 81.1433 202.034 80.45 198.481 80.45C195.014 80.45 192.067 81.1433 189.641 82.53C187.301 83.9167 185.481 85.78 184.181 88.12C182.967 90.3733 182.361 92.93 182.361 95.79V129.07C182.361 131.323 181.624 133.23 180.151 134.79C178.677 136.263 176.814 137 174.561 137C172.307 137 170.444 136.263 168.971 134.79C167.497 133.23 166.761 131.323 166.761 129.07V75.38C166.761 73.1267 167.497 71.2633 168.971 69.79C170.444 68.23 172.307 67.45 174.561 67.45C176.814 67.45 178.677 68.23 180.151 69.79C181.624 71.2633 182.361 73.1267 182.361 75.38V80.97L180.411 80.58C181.191 79.1067 182.317 77.5467 183.791 75.9C185.264 74.1667 186.997 72.5633 188.991 71.09C190.984 69.6167 193.237 68.4467 195.751 67.58C198.264 66.6267 200.994 66.15 203.941 66.15ZM280.212 66.15C286.279 66.15 291.695 67.71 296.462 70.83C301.315 73.8633 305.129 78.0667 307.902 83.44C310.762 88.8133 312.192 95.0533 312.192 102.16C312.192 109.267 310.762 115.55 307.902 121.01C305.129 126.383 301.359 130.63 296.592 133.75C291.912 136.783 286.625 138.3 280.732 138.3C277.265 138.3 274.015 137.737 270.982 136.61C267.949 135.483 265.262 134.053 262.922 132.32C260.669 130.587 258.892 128.853 257.592 127.12C256.379 125.3 255.772 123.783 255.772 122.57L259.802 120.88V155.07C259.802 157.323 259.065 159.187 257.592 160.66C256.119 162.22 254.255 163 252.002 163C249.749 163 247.885 162.263 246.412 160.79C244.939 159.317 244.202 157.41 244.202 155.07V75.38C244.202 73.1267 244.939 71.2633 246.412 69.79C247.885 68.23 249.749 67.45 252.002 67.45C254.255 67.45 256.119 68.23 257.592 69.79C259.065 71.2633 259.802 73.1267 259.802 75.38V81.75L257.592 80.58C257.592 79.4533 258.199 78.11 259.412 76.55C260.625 74.9033 262.272 73.3 264.352 71.74C266.432 70.0933 268.815 68.75 271.502 67.71C274.275 66.67 277.179 66.15 280.212 66.15ZM278.262 80.45C274.449 80.45 271.112 81.4033 268.252 83.31C265.392 85.2167 263.139 87.8167 261.492 91.11C259.932 94.3167 259.152 98 259.152 102.16C259.152 106.233 259.932 109.96 261.492 113.34C263.139 116.633 265.392 119.233 268.252 121.14C271.112 123.047 274.449 124 278.262 124C282.075 124 285.369 123.047 288.142 121.14C291.002 119.233 293.212 116.633 294.772 113.34C296.419 109.96 297.242 106.233 297.242 102.16C297.242 98 296.419 94.3167 294.772 91.11C293.212 87.8167 291.002 85.2167 288.142 83.31C285.369 81.4033 282.075 80.45 278.262 80.45ZM382.773 66.15C385.026 66.15 386.889 66.8867 388.363 68.36C389.836 69.8333 390.573 71.74 390.573 74.08V129.07C390.573 131.323 389.836 133.23 388.363 134.79C386.889 136.263 385.026 137 382.773 137C380.519 137 378.656 136.263 377.183 134.79C375.709 133.23 374.973 131.323 374.973 129.07V122.7L377.833 123.87C377.833 124.997 377.226 126.383 376.013 128.03C374.799 129.59 373.153 131.15 371.073 132.71C368.993 134.27 366.523 135.613 363.663 136.74C360.889 137.78 357.856 138.3 354.563 138.3C348.583 138.3 343.166 136.783 338.313 133.75C333.459 130.63 329.603 126.383 326.743 121.01C323.969 115.55 322.583 109.31 322.583 102.29C322.583 95.1833 323.969 88.9433 326.743 83.57C329.603 78.11 333.416 73.8633 338.183 70.83C342.949 67.71 348.236 66.15 354.043 66.15C357.769 66.15 361.193 66.7133 364.313 67.84C367.433 68.9667 370.119 70.3967 372.373 72.13C374.713 73.8633 376.489 75.64 377.703 77.46C379.003 79.1933 379.653 80.6667 379.653 81.88L374.973 83.57V74.08C374.973 71.8267 375.709 69.9633 377.183 68.49C378.656 66.93 380.519 66.15 382.773 66.15ZM356.513 124C360.326 124 363.663 123.047 366.523 121.14C369.383 119.233 371.593 116.633 373.153 113.34C374.799 110.047 375.623 106.363 375.623 102.29C375.623 98.13 374.799 94.4033 373.153 91.11C371.593 87.8167 369.383 85.2167 366.523 83.31C363.663 81.4033 360.326 80.45 356.513 80.45C352.786 80.45 349.493 81.4033 346.633 83.31C343.773 85.2167 341.519 87.8167 339.873 91.11C338.313 94.4033 337.533 98.13 337.533 102.29C337.533 106.363 338.313 110.047 339.873 113.34C341.519 116.633 343.773 119.233 346.633 121.14C349.493 123.047 352.786 124 356.513 124ZM424.364 129.07C424.364 131.323 423.584 133.23 422.024 134.79C420.55 136.263 418.687 137 416.434 137C414.267 137 412.447 136.263 410.974 134.79C409.5 133.23 408.764 131.323 408.764 129.07V48.73C408.764 46.4767 409.5 44.6133 410.974 43.14C412.534 41.58 414.44 40.8 416.694 40.8C418.947 40.8 420.767 41.58 422.154 43.14C423.627 44.6133 424.364 46.4767 424.364 48.73V129.07Z" fill="#40A1D8"/>
</svg>
